<svg xmlns="http://www.w3.org/2000/svg" width="103.272" height="62.406" viewBox="0 0 103.272 62.406">
  <g id="Group_1" data-name="Group 1" transform="translate(-341.746 -250.251)">
    <path id="Path_1" data-name="Path 1" d="M420.691,254.372H420a27.784,27.784,0,0,1-15.251,12.244c-12.634,4.059-26.632-2.958-35.534-16.365h-1.2c-1.493,17.292-11.425,31.95-26.269,42.1v.91c4.74-1.676,11.768-1.392,15.172.664,5.492,3.312,8.28,10.182,8.4,18.731h1.3c5.427-22.29,21.125-38.056,39.26-36.779,14.8,1.042,24.694,10.041,29.956,26.846h.737c1.554-1.979,4.9-4.944,8.443-5.357v-.59C433.957,288.768,422.717,271.812,420.691,254.372Z" transform="translate(0)" fill="#fff"/>
  </g>
</svg>
