<svg xmlns="http://www.w3.org/2000/svg" width="69.672" height="58.79" viewBox="0 0 69.672 58.79"><defs><style>.a{fill:#fff;}</style></defs><path class="a" d="M19,32.451a1.633,1.633,0,0,0-2.313,0L8.02,41.066l-3.089-3.01a1.633,1.633,0,0,0-2.313,0L.481,40.2a1.633,1.633,0,0,0,0,2.313l6.476,6.45a1.739,1.739,0,0,0,2.4,0l2.121-2.126L21.3,37.009a1.645,1.645,0,0,0,.012-2.313Zm0,21.662a1.633,1.633,0,0,0-2.313,0L8.02,62.784,4.931,59.777a1.633,1.633,0,0,0-2.313,0L.481,61.912a1.633,1.633,0,0,0,0,2.313l6.46,6.464a1.738,1.738,0,0,0,2.395,0l2.136-2.135L21.3,58.726a1.633,1.633,0,0,0,.012-2.3ZM8.709,77.7a6.532,6.532,0,1,0,0,13.063,6.532,6.532,0,1,0,0-13.063ZM67.5,79.874H28.3a2.177,2.177,0,0,0-2.177,2.177v4.354A2.177,2.177,0,0,0,28.3,88.583H67.5a2.177,2.177,0,0,0,2.177-2.177V82.051A2.177,2.177,0,0,0,67.5,79.874Zm0-43.545H28.3a2.177,2.177,0,0,0-2.177,2.177v4.355A2.177,2.177,0,0,0,28.3,45.038H67.5a2.177,2.177,0,0,0,2.177-2.177V38.506A2.177,2.177,0,0,0,67.5,36.329Zm0,21.773H28.3a2.177,2.177,0,0,0-2.177,2.177v4.354A2.177,2.177,0,0,0,28.3,66.811H67.5a2.177,2.177,0,0,0,2.177-2.177V60.279A2.177,2.177,0,0,0,67.5,58.1Z" transform="translate(-0.001 -31.971)"/></svg>