<svg xmlns="http://www.w3.org/2000/svg" width="62.908" height="71.895" viewBox="0 0 62.908 71.895"><defs><style>.a{fill:#fff;}</style></defs><path class="a" d="M44.934,62.908v5.617a3.37,3.37,0,0,1-3.37,3.37H3.37A3.37,3.37,0,0,1,0,68.525V16.85a3.37,3.37,0,0,1,3.37-3.37H13.48V55.045a7.872,7.872,0,0,0,7.864,7.864Zm0-48.3V0H21.344a3.37,3.37,0,0,0-3.37,3.37V55.045a3.37,3.37,0,0,0,3.37,3.37H59.538a3.37,3.37,0,0,0,3.37-3.37V17.974H48.3A3.38,3.38,0,0,1,44.934,14.6Zm16.987-4.357L52.662.987A3.37,3.37,0,0,0,50.279,0h-.851V13.48h13.48V12.63a3.37,3.37,0,0,0-.987-2.383Z"/></svg>